<?xml version="1.0" encoding="iso-8859-1"?>
<!-- Uploaded to: SVG Repo, www.svgrepo.com, Generator: SVG Repo Mixer Tools -->
<svg height="800px" width="800px" version="1.1" id="Layer_1" xmlns="http://www.w3.org/2000/svg" xmlns:xlink="http://www.w3.org/1999/xlink" 
	 viewBox="0 0 503.467 503.467" xml:space="preserve">
<g transform="translate(1 1)">
	<path style="fill:#AAB1BA;" d="M105.667,498.2H139.8l0,0l6.827-42.667H114.2c0,4.267-3.413,8.533-8.533,8.533
		c-4.267,0-8.533-4.267-8.533-8.533H64.707l6.827,42.667l0,0H105.667z M395.8,242.2h34.133l0,0l6.827-42.667h-32.427
		c0,4.267-3.413,8.533-8.533,8.533c-4.267,0-8.533-4.267-8.533-8.533H354.84l6.827,42.667l0,0H395.8z"/>
	<path style="fill:#67D7F9;" d="M498.2,199.533V242.2h-68.267l6.827-42.667l1.707-8.533C453.827,191,481.133,192.707,498.2,199.533z
		 M208.067,455.533V498.2H139.8l6.827-42.667l1.707-8.533C163.693,447,191,448.707,208.067,455.533z M64.707,455.533l6.827,42.667
		H3.267v-42.667C20.333,448.707,47.64,447,63,447L64.707,455.533z M354.84,199.533l6.827,42.667H293.4v-42.667
		c17.067-6.827,44.373-8.533,59.733-8.533L354.84,199.533z"/>
	<path style="fill:#FFD0A1;" d="M173.933,319v17.067c0,4.267-3.413,8.533-8.533,8.533c0,17.067-8.533,34.133-8.533,34.133
		c-8.533,17.067-17.92,34.133-51.2,34.133S63,395.8,54.467,378.733c0,0-8.533-17.067-8.533-34.133c-4.267,0-8.533-4.267-8.533-8.533
		V319c0-4.267,4.267-8.533,8.533-8.533v-8.533c0-23.893,18.773-42.667,42.667-42.667h34.133c23.893,0,42.667,18.773,42.667,42.667
		v8.533C170.52,310.467,173.933,314.733,173.933,319z M464.067,63v17.067c0,4.267-3.413,8.533-8.533,8.533
		c0,17.067-8.533,34.133-8.533,34.133c-8.533,17.067-17.92,34.133-51.2,34.133s-42.667-17.067-51.2-34.133
		c0,0-8.533-17.067-8.533-34.133c-5.12,0-8.533-4.267-8.533-8.533V63c0-4.267,3.413-8.533,8.533-8.533v-8.533
		c0-23.893,18.773-42.667,42.667-42.667h34.133c23.893,0,42.667,18.773,42.667,42.667v8.533
		C460.653,54.467,464.067,58.733,464.067,63z"/>
	<path style="fill:#E4F2DE;" d="M105.667,447c4.267,0,8.533,4.267,8.533,8.533s-4.267,8.533-8.533,8.533
		c-4.267,0-8.533-4.267-8.533-8.533S101.4,447,105.667,447z M395.8,191c5.12,0,8.533,4.267,8.533,8.533
		c0,4.267-3.413,8.533-8.533,8.533s-8.533-4.267-8.533-8.533C387.267,195.267,390.68,191,395.8,191z"/>
</g>
<path style="fill:#51565F;" d="M106.667,503.467c-2.56,0-4.267-1.707-4.267-4.267v-30.72c-5.12-1.707-8.533-6.827-8.533-11.947
	c0-6.827,5.973-12.8,12.8-12.8c6.827,0,12.8,5.973,12.8,12.8c0,5.973-3.413,10.24-8.533,11.947v30.72
	C110.933,501.76,109.227,503.467,106.667,503.467z M106.667,452.267c-2.56,0-4.267,1.707-4.267,4.267s1.707,4.267,4.267,4.267
	c2.56,0,4.267-1.707,4.267-4.267S109.227,452.267,106.667,452.267z M140.8,503.467C140.8,503.467,139.947,503.467,140.8,503.467
	c-3.413-0.853-4.267-2.56-4.267-5.12l8.533-51.2c0-2.56,2.56-3.413,4.267-3.413c17.92,0,44.373,2.56,60.587,8.533
	c2.56,0.853,3.413,3.413,2.56,5.12c-0.853,2.56-3.413,3.413-5.12,2.56c-14.507-5.973-37.547-7.68-54.613-7.68l-7.68,47.787
	C145.067,501.76,142.507,503.467,140.8,503.467z M72.533,503.467c-1.707,0-4.267-1.707-4.267-3.413l-7.68-47.787
	c-17.067,0-40.107,2.56-54.613,8.533c-2.56,0.853-4.267,0-5.12-2.56c-0.853-2.56,0-4.267,2.56-5.12
	c21.333-8.533,54.613-8.533,61.44-8.533c1.707,0,4.267,1.707,4.267,3.413l8.533,51.2C76.8,500.907,75.947,502.613,72.533,503.467
	C73.387,503.467,72.533,503.467,72.533,503.467z M260.267,435.2c-0.853,0-2.56,0-3.413-0.853l-51.2-51.2l0,0l0,0l0,0l0,0l0,0
	c0,0-0.853-0.853-0.853-1.707c0-0.853,0-0.853,0-1.707l0,0l0,0l0,0l0,0l0,0l0,0l0,0l0,0l0,0c0-0.853,0-0.853,0-1.707
	c0-0.853,0.853-0.853,0.853-1.707l0,0l0,0l0,0l0,0l0,0l51.2-51.2c1.707-1.707,4.267-1.707,5.973,0c1.707,1.707,1.707,4.267,0,5.973
	l-43.52,43.52H294.4c53.76,0,98.133-44.373,98.133-98.133c0-2.56,1.707-4.267,4.267-4.267s4.267,1.707,4.267,4.267
	c0,58.88-47.787,106.667-106.667,106.667h-75.093l43.52,43.52c1.707,1.707,1.707,4.267,0,5.973
	C262.827,435.2,261.12,435.2,260.267,435.2z M106.667,418.133c-36.693,0-46.933-21.333-54.613-36.693
	c0-0.853-7.68-16.213-8.533-32.427c-5.12-1.707-8.533-6.827-8.533-11.947V320c0-5.973,3.413-10.24,8.533-11.947v-5.12
	c0-25.6,21.333-46.933,46.933-46.933h34.133c25.6,0,46.933,21.333,46.933,46.933v5.12c5.12,1.707,8.533,6.827,8.533,11.947v17.067
	c0,5.973-3.413,10.24-8.533,11.947c-0.853,16.213-8.533,31.573-8.533,32.427C153.6,396.8,143.36,418.133,106.667,418.133z
	 M89.6,264.533c-21.333,0-38.4,17.067-38.4,38.4v8.533c0,2.56-1.707,4.267-4.267,4.267c-2.56,0-4.267,1.707-4.267,4.267v17.067
	c0,2.56,1.707,4.267,4.267,4.267c2.56,0,4.267,1.707,4.267,4.267c0,16.213,7.68,32.427,7.68,32.427
	C68.267,396.8,76.8,409.6,106.667,409.6s38.4-12.8,47.787-31.573c0,0,7.68-16.213,7.68-32.427c0-2.56,1.707-4.267,4.267-4.267
	c2.56,0,4.267-1.707,4.267-4.267V320c0-2.56-1.707-4.267-4.267-4.267c-2.56,0-4.267-1.707-4.267-4.267v-8.533
	c0-21.333-17.067-38.4-38.4-38.4H89.6z M132.267,332.8h-8.533c-2.56,0-4.267-1.707-4.267-4.267c0-2.56,1.707-4.267,4.267-4.267
	h8.533c2.56,0,4.267,1.707,4.267,4.267C136.533,331.093,134.827,332.8,132.267,332.8z M89.6,332.8h-8.533
	c-2.56,0-4.267-1.707-4.267-4.267c0-2.56,1.707-4.267,4.267-4.267H89.6c2.56,0,4.267,1.707,4.267,4.267
	C93.867,331.093,92.16,332.8,89.6,332.8z M396.8,247.467c-2.56,0-4.267-1.707-4.267-4.267v-30.72
	c-5.12-1.707-8.533-6.827-8.533-11.947c0-6.827,5.973-12.8,12.8-12.8s12.8,5.973,12.8,12.8c0,5.973-3.413,10.24-8.533,11.947v30.72
	C401.067,245.76,399.36,247.467,396.8,247.467z M396.8,196.267c-2.56,0-4.267,1.707-4.267,4.267c0,2.56,1.707,4.267,4.267,4.267
	s4.267-1.707,4.267-4.267C401.067,197.973,399.36,196.267,396.8,196.267z M430.933,247.467
	C430.933,247.467,430.08,247.467,430.933,247.467c-3.413-0.853-4.267-2.56-4.267-5.12l8.533-51.2c0-2.56,2.56-3.413,4.267-3.413
	c17.92,0,44.373,2.56,60.587,8.533c2.56,0.853,3.413,3.413,2.56,5.12c-0.853,2.56-3.413,3.413-5.12,2.56
	c-14.507-5.973-37.547-7.68-54.613-7.68l-7.68,47.787C435.2,245.76,432.64,247.467,430.933,247.467z M362.667,247.467
	c-1.707,0-4.267-1.707-4.267-3.413l-7.68-47.787c-17.067,0-40.107,2.56-54.613,7.68c-2.56,0.853-4.267,0-5.12-2.56
	c-0.853-2.56,0-4.267,2.56-5.12c21.333-8.533,54.613-8.533,61.44-8.533c1.707,0,4.267,1.707,4.267,3.413l8.533,51.2
	C366.933,244.907,366.08,246.613,362.667,247.467C363.52,247.467,362.667,247.467,362.667,247.467z M89.6,230.4
	c-2.56,0-4.267-1.707-4.267-4.267v-51.2c0-58.88,47.787-106.667,106.667-106.667h75.093l-43.52-43.52
	c-1.707-1.707-1.707-4.267,0-5.973c1.707-1.707,4.267-1.707,5.973,0l51.2,51.2l0,0l0,0l0,0l0,0l0,0c0,0,0.853,0.853,0.853,1.707
	s0,0.853,0,1.707l0,0l0,0l0,0l0,0l0,0l0,0l0,0l0,0l0,0c0,0.853,0,0.853,0,1.707s-0.853,0.853-0.853,1.707l0,0l0,0l0,0l0,0l0,0
	l-51.2,51.2c-1.707,1.707-4.267,1.707-5.973,0c-1.707-1.707-1.707-4.267,0-5.973l43.52-43.52H192
	c-53.76,0-98.133,44.373-98.133,98.133v51.2C93.867,228.693,92.16,230.4,89.6,230.4z M396.8,162.133
	c-36.693,0-46.933-21.333-54.613-36.693c0-0.853-7.68-16.213-8.533-32.427c-5.12-1.707-8.533-6.827-8.533-11.947V64
	c0-5.973,3.413-10.24,8.533-11.947v-5.12c0-25.6,21.333-46.933,46.933-46.933h34.133c25.6,0,46.933,21.333,46.933,46.933v5.12
	c5.12,1.707,8.533,6.827,8.533,11.947v17.067c0,5.973-3.413,10.24-8.533,11.947c-0.853,16.213-8.533,31.573-8.533,32.427
	C443.733,140.8,433.493,162.133,396.8,162.133z M379.733,8.533c-21.333,0-38.4,17.067-38.4,38.4v8.533
	c0,2.56-1.707,4.267-4.267,4.267S332.8,61.44,332.8,64v17.067c0,2.56,1.707,4.267,4.267,4.267s4.267,1.707,4.267,4.267
	c0,16.213,7.68,32.427,7.68,32.427C358.4,140.8,366.933,153.6,396.8,153.6s38.4-12.8,47.787-31.573c0,0,7.68-16.213,7.68-32.427
	c0-2.56,1.707-4.267,4.267-4.267s4.267-1.707,4.267-4.267V64c0-2.56-1.707-4.267-4.267-4.267s-4.267-1.707-4.267-4.267v-8.533
	c0-21.333-17.067-38.4-38.4-38.4H379.733z M422.4,76.8h-8.533c-2.56,0-4.267-1.707-4.267-4.267c0-2.56,1.707-4.267,4.267-4.267
	h8.533c2.56,0,4.267,1.707,4.267,4.267C426.667,75.093,424.96,76.8,422.4,76.8z M379.733,76.8H371.2
	c-2.56,0-4.267-1.707-4.267-4.267c0-2.56,1.707-4.267,4.267-4.267h8.533c2.56,0,4.267,1.707,4.267,4.267
	C384,75.093,382.293,76.8,379.733,76.8z"/>
</svg>